---
config:
  layout: elk
  darkMode: false
  theme: default
  themeVariables:
    fontSize: 12px  # Adjust this value as needed
---
stateDiagram-v2
    %% READ_MASTER STATE MACHINE
    state "READ_MASTER" as RM {
        direction TB
        [*] --> IDLE
        IDLE --> CHECK_FIFO:Start=1 & Length>0
        CHECK_FIFO --> REQUEST:!FF_almostfull
        CHECK_FIFO --> CHECK_FIFO:FF_almostfull
        REQUEST --> WAIT_DATA:!iRM_waitrequest
        REQUEST --> REQUEST:iRM_waitrequest
        WAIT_DATA --> WRITE_FIFO:iRM_readdatavalid==1
        WAIT_DATA --> WAIT_DATA:iRM_readdatavalid==0
        WRITE_FIFO --> WAIT_FIFO:Ghi xong 1 word
        WAIT_FIFO --> IDLE:bytes_remaining <= 0
        WAIT_FIFO --> CHECK_FIFO:bytes_remaining > 0
        IDLE:Chờ tín hiệu Start<br>Khởi tạo counters
        CHECK_FIFO:Kiểm tra FIFO gần đầy?
        REQUEST:Gửi yêu cầu đọc<br>(oRM_read=1)
        WAIT_DATA:Chờ dữ liệu hợp lệ
        WRITE_FIFO:Ghi dữ liệu iRM_readdata vào FIFO<br>(FF_writerequest=1)
        WAIT_FIFO:Cập nhật địa chỉ đọc còn lại
    }